<svg width="15" height="6" viewBox="0 0 15 6" fill="none" xmlns="http://www.w3.org/2000/svg">
<path d="M3.23185e-07 0.35425C-3.31651e-05 0.400765 0.0144956 0.446828 0.0427566 0.489809C0.0710177 0.53279 0.112458 0.571846 0.16471 0.604747L7.10199 4.96992C7.20753 5.03631 7.35065 5.07361 7.49988 5.07361C7.64911 5.07361 7.79223 5.03631 7.89777 4.96992L14.8351 0.604747C14.8873 0.571866 14.9288 0.532829 14.9571 0.489863C14.9854 0.446897 15 0.400844 15 0.354333C15 0.307822 14.9855 0.261765 14.9572 0.218791C14.9289 0.175816 14.8875 0.136766 14.8352 0.10387C14.783 0.070974 14.721 0.0448771 14.6527 0.0270681C14.5844 0.00925905 14.5112 8.66746e-05 14.4373 7.57167e-05C14.3634 6.47587e-05 14.2902 0.00921519 14.2219 0.0270039C14.1536 0.0447927 14.0916 0.070872 14.0393 0.103752L7.50007 4.21866L0.960864 0.103753C0.882156 0.0541926 0.781855 0.0204376 0.672651 0.00675965C0.563448 -0.00691834 0.45025 9.47192e-05 0.347383 0.0269122C0.244516 0.0537297 0.156602 0.0991466 0.0947656 0.157415C0.0329293 0.215683 -5.01512e-05 0.284184 3.23185e-07 0.35425V0.35425Z" fill="black" fill-opacity="0.5"/>
</svg>
