<svg width="25" height="25" viewBox="0 0 25 25" fill="none" xmlns="http://www.w3.org/2000/svg">
<path d="M14.7082 14.7083C14.4221 15.0153 14.0771 15.2616 13.6937 15.4324C13.3104 15.6032 12.8966 15.695 12.477 15.7024C12.0574 15.7099 11.6406 15.6327 11.2515 15.4755C10.8624 15.3183 10.5089 15.0844 10.2122 14.7876C9.91543 14.4909 9.6815 14.1374 9.52433 13.7483C9.36715 13.3592 9.28997 12.9424 9.29737 12.5228C9.30478 12.1032 9.39662 11.6894 9.56742 11.3061C9.73822 10.9227 9.98448 10.5777 10.2915 10.2917M18.6873 18.6875C16.9067 20.0448 14.7385 20.7967 12.4998 20.8333C5.20817 20.8333 1.0415 12.5 1.0415 12.5C2.33722 10.0853 4.13435 7.97562 6.31234 6.31249L18.6873 18.6875ZM10.3123 4.41665C11.0293 4.24882 11.7634 4.16492 12.4998 4.16665C19.7915 4.16665 23.9582 12.5 23.9582 12.5C23.3259 13.6829 22.5718 14.7966 21.7082 15.8229L10.3123 4.41665Z" stroke="black" stroke-opacity="0.15" stroke-width="2" stroke-linecap="round" stroke-linejoin="round"/>
<path d="M1.0415 1.04163L23.9582 23.9583" stroke="black" stroke-opacity="0.15" stroke-width="2" stroke-linecap="round" stroke-linejoin="round"/>
</svg>
