<svg width="25" height="25" viewBox="0 0 25 25" fill="none" xmlns="http://www.w3.org/2000/svg">
<path d="M12.5 5.20833C18.0078 5.20833 21.4849 10.4161 22.6557 12.5C21.4828 14.5875 18.0065 19.7917 12.5 19.7917C6.99297 19.7917 3.51641 14.6141 2.34453 12.5388C3.51562 10.443 6.99297 5.20833 12.5 5.20833ZM12.5 3.125C4.16667 3.125 0 12.5432 0 12.5432C0 12.5432 4.16667 21.875 12.5 21.875C20.8333 21.875 25 12.5 25 12.5C25 12.5 20.8333 3.125 12.5 3.125Z" fill="black" fill-opacity="0.15"/>
<path d="M12.5002 10.4167C13.6489 10.4167 14.5835 11.3513 14.5835 12.5C14.5835 13.6487 13.6489 14.5834 12.5002 14.5834C11.3515 14.5834 10.4168 13.6487 10.4168 12.5C10.4168 11.3513 11.3515 10.4167 12.5002 10.4167ZM12.5002 8.33337C10.1991 8.33337 8.3335 10.199 8.3335 12.5C8.3335 14.8013 10.1991 16.6667 12.5002 16.6667C14.8015 16.6667 16.6668 14.8013 16.6668 12.5C16.6668 10.199 14.8015 8.33337 12.5002 8.33337Z" fill="black" fill-opacity="0.15"/>
</svg>
