<svg width="576" height="449" viewBox="0 0 576 449" fill="none" xmlns="http://www.w3.org/2000/svg">
<path d="M444.344 178.662H341.752L376.566 96.5006H479.157L444.344 178.662Z" fill="black"/>
<path d="M444.344 177.931H345.934C344.591 177.861 343.245 177.861 341.902 177.931C341.845 177.936 341.787 177.936 341.729 177.931L342.363 179.03L345.819 170.839L354.154 151.175L364.17 127.527L372.879 106.977L375.759 100.208L376.641 98.118C376.826 97.7603 376.984 97.3889 377.113 97.007C377.13 96.96 377.149 96.9138 377.171 96.8688L376.543 97.2315H474.97C476.313 97.3012 477.658 97.3012 479.002 97.2315C479.057 97.2286 479.113 97.2286 479.169 97.2315L478.523 96.132L475.068 104.323L466.739 123.987L456.716 147.635L448.013 168.191C446.603 171.514 445.194 174.837 443.785 178.161L443.727 178.293C443.364 179.151 444.626 179.894 444.989 179.03L448.445 170.839L456.768 151.175L466.785 127.527L475.494 106.977C476.899 103.65 478.307 100.327 479.716 97.007L479.773 96.8688C479.835 96.7571 479.866 96.6314 479.865 96.504C479.864 96.3765 479.829 96.2516 479.766 96.1411C479.702 96.0307 479.611 95.9385 479.502 95.8734C479.392 95.8083 479.267 95.7724 479.14 95.7694H380.736C379.4 95.7694 378.058 95.7291 376.704 95.7694H376.531C376.403 95.7679 376.276 95.8007 376.165 95.8645C376.054 95.9282 375.961 96.0206 375.898 96.132L372.442 104.323L364.107 123.987L354.09 147.635L345.381 168.191C343.972 171.514 342.563 174.837 341.153 178.161L341.101 178.293C341.039 178.404 341.006 178.53 341.006 178.657C341.006 178.785 341.039 178.91 341.103 179.021C341.166 179.132 341.257 179.225 341.367 179.29C341.477 179.355 341.602 179.39 341.729 179.393H440.162C441.492 179.393 442.835 179.433 444.194 179.393H444.367C444.561 179.39 444.746 179.31 444.881 179.17C445.016 179.031 445.09 178.844 445.087 178.65C445.084 178.456 445.004 178.272 444.864 178.137C444.725 178.002 444.538 177.928 444.344 177.931Z" fill="black"/>
<path d="M438.906 178.662H336.315L371.123 96.5006H473.714L438.906 178.662Z" fill="#24B95C"/>
<path d="M438.912 177.931H340.497C339.154 177.861 337.808 177.861 336.465 177.931C336.407 177.936 336.349 177.936 336.292 177.931L336.96 179.024L340.416 170.833L348.745 151.169L358.767 127.522L367.488 106.977L370.368 100.208L371.249 98.118C371.435 97.7603 371.593 97.3889 371.722 97.007C371.738 96.96 371.758 96.9138 371.779 96.8688L371.146 97.2315H469.532C470.875 97.3014 472.221 97.3014 473.564 97.2315H473.737L473.086 96.132L469.63 104.323L461.296 123.987L451.279 147.635L442.57 168.191C441.164 171.514 439.757 174.837 438.348 178.161L438.29 178.293C437.927 179.151 439.183 179.894 439.552 179.03L443.008 170.839L451.337 151.175L461.376 127.527L470.085 106.977C471.495 103.65 472.904 100.327 474.313 97.007L474.371 96.8688C474.432 96.7571 474.464 96.6314 474.462 96.504C474.461 96.3765 474.427 96.2516 474.363 96.1411C474.3 96.0307 474.208 95.9385 474.099 95.8734C473.989 95.8083 473.865 95.7724 473.737 95.7694H375.31C373.974 95.7694 372.632 95.7291 371.278 95.7694H371.105C370.978 95.7677 370.852 95.8005 370.742 95.8643C370.631 95.9282 370.54 96.0207 370.478 96.132L367.022 104.323L358.693 123.987L348.67 147.635L339.967 168.191C338.554 171.514 337.144 174.837 335.739 178.161L335.681 178.293C335.62 178.405 335.589 178.531 335.59 178.658C335.591 178.786 335.625 178.91 335.689 179.021C335.753 179.131 335.844 179.224 335.953 179.289C336.063 179.354 336.188 179.39 336.315 179.393H434.719C436.055 179.393 437.397 179.433 438.751 179.393H438.912C439.106 179.393 439.292 179.316 439.429 179.179C439.567 179.041 439.644 178.856 439.644 178.662C439.644 178.468 439.567 178.282 439.429 178.145C439.292 178.008 439.106 177.931 438.912 177.931Z" fill="#24B95C"/>
<path d="M240.111 262.613C241.186 309.86 232.434 356.816 214.41 400.508C210.879 409.051 206.922 417.99 208.074 427.154C208.192 427.788 208.22 428.436 208.155 429.077C207.579 432.56 202.441 432.214 199.209 430.804C193.417 428.264 187.818 425.303 182.459 421.945C179.959 420.368 177.425 418.623 175.922 416.079C173.157 411.382 176.06 406.869 177.534 401.619C182.142 385.11 184.855 366.914 185.702 349.811C186.082 342.086 185.788 334.338 186.278 326.619C187.314 310.28 191.802 294.346 199.445 279.865" fill="black"/>
<path d="M239.547 262.613C239.754 274.178 239.369 285.747 238.395 297.272C237.416 308.831 235.88 320.321 233.787 331.742C231.679 343.059 229.014 354.253 225.792 365.325C222.555 376.431 218.758 387.367 214.416 398.09C212.262 403.415 209.86 408.676 208.357 414.237C207.595 416.964 207.137 419.767 206.992 422.595C206.93 423.965 206.973 425.337 207.118 426.7C207.234 427.736 207.579 429.002 206.853 429.906C205.869 431.121 203.732 430.994 202.366 430.764C199.999 430.372 197.816 429.186 195.673 428.156C190.485 425.766 185.506 422.945 180.789 419.723C178.762 418.29 176.757 416.442 175.991 413.995C175.225 411.549 175.991 408.953 176.809 406.592C178.589 401.279 180.066 395.869 181.233 390.388C183.698 379.028 185.374 367.51 186.25 355.919C186.711 349.949 186.826 343.98 186.912 337.993C186.878 332.055 187.166 326.119 187.776 320.212C189.125 308.989 192.125 298.028 196.681 287.682C197.781 285.19 198.945 282.692 200.218 280.28C200.765 279.232 199.175 278.299 198.622 279.347C193.24 289.511 189.391 300.414 187.2 311.704C186.1 317.427 185.426 323.225 185.184 329.048C184.914 335.34 185.046 341.643 184.827 347.94C184.416 359.865 183.091 371.741 180.864 383.463C179.758 389.283 178.434 395.062 176.832 400.767C175.49 405.608 172.38 410.841 174.788 415.843C175.899 418.146 177.898 419.873 179.972 421.346C182.31 422.993 184.81 424.443 187.298 425.848C189.913 427.329 192.58 428.714 195.299 430.004C197.396 431.005 199.533 432.145 201.848 432.542C203.611 432.842 205.655 432.905 207.239 431.967C207.983 431.523 208.555 430.841 208.864 430.033C209.33 428.806 209.013 427.529 208.904 426.262C208.374 420.391 209.929 414.617 211.945 409.154C213.961 403.691 216.392 398.28 218.494 392.794C220.597 387.309 222.601 381.65 224.427 375.997C228.073 364.745 231.121 353.309 233.557 341.735C235.983 330.18 237.813 318.508 239.04 306.765C240.261 295.004 240.849 283.187 240.803 271.363C240.803 268.446 240.757 265.53 240.665 262.613C240.636 262.486 240.564 262.372 240.462 262.291C240.36 262.21 240.234 262.165 240.103 262.165C239.973 262.165 239.846 262.21 239.744 262.291C239.642 262.372 239.571 262.486 239.542 262.613H239.547Z" fill="black"/>
<path d="M239.547 262.613C239.754 274.178 239.369 285.747 238.395 297.272C237.416 308.831 235.88 320.321 233.787 331.742C231.679 343.059 229.014 354.253 225.792 365.325C222.555 376.431 218.758 387.367 214.416 398.09C212.262 403.415 209.86 408.676 208.357 414.237C207.595 416.964 207.137 419.767 206.992 422.595C206.93 423.965 206.973 425.337 207.118 426.7C207.234 427.736 207.579 429.002 206.853 429.906C205.869 431.121 203.732 430.994 202.366 430.764C199.999 430.372 197.816 429.186 195.673 428.156C190.485 425.766 185.506 422.945 180.789 419.723C178.762 418.29 176.757 416.442 175.991 413.995C175.225 411.549 175.991 408.953 176.809 406.592C178.589 401.279 180.066 395.869 181.233 390.388C183.698 379.028 185.374 367.51 186.25 355.919C186.711 349.949 186.826 343.98 186.912 337.993C186.878 332.055 187.166 326.119 187.776 320.212C189.125 308.989 192.125 298.028 196.681 287.682C197.781 285.19 198.945 282.692 200.218 280.28C200.765 279.232 199.175 278.299 198.622 279.347C193.24 289.511 189.391 300.414 187.2 311.704C186.1 317.427 185.426 323.225 185.184 329.048C184.914 335.34 185.046 341.643 184.827 347.94C184.416 359.865 183.091 371.741 180.864 383.463C179.758 389.283 178.434 395.062 176.832 400.767C175.49 405.608 172.38 410.841 174.788 415.843C175.899 418.146 177.898 419.873 179.972 421.346C182.31 422.993 184.81 424.443 187.298 425.848C189.913 427.329 192.58 428.714 195.299 430.004C197.396 431.005 199.533 432.145 201.848 432.542C203.611 432.842 205.655 432.905 207.239 431.967C207.983 431.523 208.555 430.841 208.864 430.033C209.33 428.806 209.013 427.529 208.904 426.262C208.374 420.391 209.929 414.617 211.945 409.154C213.961 403.691 216.392 398.28 218.494 392.794C220.597 387.309 222.601 381.65 224.427 375.997C228.073 364.745 231.121 353.309 233.557 341.735C235.983 330.18 237.813 318.508 239.04 306.765C240.261 295.004 240.849 283.187 240.803 271.363C240.803 268.446 240.757 265.53 240.665 262.613C240.636 262.486 240.564 262.372 240.462 262.291C240.36 262.21 240.234 262.165 240.103 262.165C239.973 262.165 239.846 262.21 239.744 262.291C239.642 262.372 239.571 262.486 239.542 262.613H239.547Z" fill="black"/>
<path d="M145.895 415.814H142.387V275.531H145.895V415.814Z" fill="black" stroke="black" stroke-width="1.69" stroke-miterlimit="10"/>
<path d="M184.118 433.59H104.169C103.808 433.589 103.462 433.444 103.207 433.188C102.953 432.933 102.81 432.587 102.81 432.226V424.789C102.81 422.299 103.799 419.91 105.561 418.15C107.323 416.389 109.713 415.4 112.204 415.4H176.082C178.574 415.4 180.964 416.389 182.725 418.15C184.487 419.91 185.477 422.299 185.477 424.789V432.226C185.477 432.588 185.333 432.935 185.077 433.191C184.821 433.446 184.474 433.59 184.112 433.59H184.118Z" fill="black" stroke="black" stroke-width="1.69" stroke-miterlimit="10"/>
<path d="M365.425 434.609H361.917V194.354H365.425V434.609Z" fill="black" stroke="black" stroke-width="1.69" stroke-miterlimit="10"/>
<path d="M267.01 434.609H263.502V194.354H267.01V434.609Z" fill="black" stroke="black" stroke-width="1.69" stroke-miterlimit="10"/>
<path d="M248.319 186.611H500.82V195.344H248.319V186.611Z" fill="black"/>
<path d="M248.319 196.806H490.573C493.845 196.806 497.123 196.864 500.365 196.806H500.792C501.178 196.8 501.547 196.644 501.82 196.371C502.093 196.098 502.249 195.73 502.255 195.344V186.611C502.249 186.226 502.093 185.857 501.82 185.584C501.547 185.311 501.178 185.155 500.792 185.149H258.566C255.301 185.149 252.017 185.086 248.774 185.149H248.342C247.956 185.155 247.588 185.311 247.314 185.584C247.041 185.857 246.885 186.226 246.879 186.611V195.344C246.879 197.221 249.805 197.226 249.805 195.344V186.611L248.342 188.074H490.573C493.822 188.074 497.146 188.275 500.365 188.074H500.792L499.329 186.611V195.344L500.792 193.882H258.566C255.301 193.882 252.017 193.818 248.774 193.882C248.63 193.882 248.486 193.882 248.342 193.882C246.436 193.882 246.436 196.806 248.319 196.806Z" fill="black"/>
<path d="M310.988 184.378C314.115 185.858 317.604 186.401 321.034 185.941C324.463 185.482 327.686 184.039 330.313 181.787C331.028 181.148 331.693 180.453 332.3 179.709C332.599 179.358 334.178 177.816 334.379 179.07C334.529 180.015 335.963 179.612 335.819 178.673C335.739 178.29 335.544 177.94 335.258 177.671C334.973 177.402 334.612 177.228 334.224 177.171C333.807 177.109 333.383 177.145 332.983 177.276C332.583 177.407 332.219 177.629 331.92 177.925C331.205 178.547 330.664 179.358 329.99 180.02C329.333 180.656 328.622 181.234 327.865 181.747C324.849 183.788 321.276 184.848 317.635 184.781C315.522 184.765 313.434 184.324 311.495 183.486C310.919 183.232 310.4 184.061 310.988 184.355V184.378Z" fill="black"/>
<path d="M339.42 173.147C337.497 170.753 334.707 169.212 331.655 168.859C331.494 168.86 331.34 168.925 331.225 169.039C331.111 169.153 331.046 169.307 331.045 169.469C331.049 169.629 331.115 169.782 331.229 169.895C331.342 170.009 331.495 170.075 331.655 170.079C334.398 170.411 336.918 171.753 338.723 173.844C339.149 174.333 339.806 173.636 339.42 173.147Z" fill="black"/>
<path d="M336.315 164.167C333.833 163.973 331.336 164.062 328.874 164.432C328.787 164.436 328.703 164.459 328.627 164.5C328.551 164.542 328.485 164.599 328.434 164.669C328.384 164.739 328.349 164.82 328.334 164.905C328.319 164.99 328.322 165.077 328.346 165.16C328.369 165.244 328.41 165.321 328.467 165.386C328.524 165.451 328.595 165.502 328.674 165.536C328.754 165.57 328.84 165.586 328.926 165.582C329.013 165.578 329.097 165.555 329.173 165.514C331.537 165.163 333.929 165.042 336.315 165.151C336.955 165.18 336.943 164.213 336.315 164.167Z" fill="black"/>
<path d="M332.007 158.825C330.153 158.88 328.318 159.213 326.563 159.815C326.427 159.859 326.311 159.953 326.24 160.077C326.168 160.202 326.146 160.349 326.177 160.489C326.223 160.624 326.316 160.738 326.441 160.809C326.566 160.879 326.712 160.9 326.851 160.869C328.507 160.261 330.245 159.906 332.007 159.815C332.64 159.781 332.646 158.802 332.007 158.825Z" fill="black"/>
<path d="M328.603 152.793C323.522 153.68 318.832 156.089 315.153 159.7C314.525 160.31 315.493 161.278 316.109 160.656C319.63 157.204 324.051 154.811 328.867 153.748C329.495 153.604 329.219 152.689 328.603 152.793Z" fill="black"/>
<path d="M314.208 154.272C312.141 155.628 310.418 157.444 309.173 159.579C307.975 161.634 306.962 164.184 306.944 166.619C306.944 167.402 308.217 167.627 308.35 166.809C308.494 165.686 308.707 164.573 308.989 163.476C309.312 162.389 309.75 161.339 310.297 160.345C311.404 158.336 312.909 156.573 314.72 155.164C315.227 154.773 314.766 153.909 314.208 154.283V154.272Z" fill="black"/>
<path d="M187.851 181.782C187.471 184.118 187.978 186.512 189.274 188.494C208.696 196.392 226.673 206.465 244.46 217.472C263.163 229.042 285.247 240.601 289.227 264.237C297.049 310.748 298.155 359.361 289.227 405.81C288.536 409.408 287.821 413.23 289.152 416.638C290.022 418.877 291.709 420.759 293.38 422.618C296.836 426.447 294.584 432.64 289.475 433.268C282.972 434.062 277.085 432.888 269.637 430.511C264.096 428.738 257.864 426.337 255.842 420.88C254.949 418.468 255.059 415.809 255.162 413.236C256.81 371.576 238.7 321.191 240.647 278.351C235.463 279.503 245.831 279.635 240.647 278.351C220.752 273.43 178.739 264.11 160.381 255.009C154.045 251.872 147.859 248.159 143.217 242.846C134.991 233.428 132.699 220.309 131.651 207.853C129.986 188.143 142.301 179.56 145.187 159.994" fill="white"/>
<path d="M187.275 181.62C186.99 183.322 187.128 185.068 187.678 186.703C187.885 187.469 188.233 188.189 188.704 188.827C189.28 189.466 190.507 189.72 191.29 190.053C195.322 191.78 199.354 193.628 203.311 195.534C211.145 199.287 218.794 203.403 226.351 207.703C233.563 211.807 240.601 216.17 247.663 220.499C253.239 223.913 258.843 227.297 264.165 231.091C274.747 238.632 284.372 248.216 287.632 261.18C288.645 265.209 289.147 269.388 289.757 273.487C290.437 278.054 291.047 282.64 291.589 287.245C292.653 296.259 293.442 305.303 293.956 314.375C294.991 332.434 294.799 350.543 293.38 368.577C292.654 377.622 291.581 386.627 290.16 395.592C289.463 399.972 288.501 404.319 287.856 408.705C287.28 412.608 287.517 416.332 289.832 419.642C291.681 422.307 294.837 424.426 294.071 428.075C293.803 429.368 293.094 430.527 292.067 431.356C290.667 432.456 288.922 432.565 287.211 432.663C283.205 432.811 279.199 432.355 275.328 431.31C271.53 430.429 267.818 429.206 264.24 427.655C261.222 426.268 258.244 424.316 256.821 421.191C255.163 417.553 255.992 413.051 256.027 409.171C256.052 401.462 255.621 393.758 254.736 386.1C252.974 369.953 249.898 353.99 247.139 338.005C244.38 322.019 241.805 305.907 241.35 289.651C241.246 285.879 241.275 282.108 241.436 278.34C241.434 278.224 241.406 278.111 241.353 278.008C241.301 277.905 241.226 277.816 241.134 277.746C241.042 277.676 240.935 277.628 240.822 277.605C240.709 277.583 240.592 277.586 240.48 277.614C239.904 277.752 238.868 277.896 238.539 278.507C238.211 279.117 238.649 279.658 239.207 279.836C240.014 280.124 241.719 280.222 242.468 279.727C244.391 278.443 240.607 277.545 239.985 277.396C237.343 276.743 234.695 276.1 232.042 275.467C218.299 272.157 204.549 268.841 190.956 264.956C178.197 261.312 165.076 257.473 153.712 250.427C146.224 245.781 140.464 239.49 137.209 231.241C134.162 223.562 132.901 215.123 132.382 206.903C131.91 199.454 133.742 192.471 136.737 185.713C139.588 179.283 142.877 173.049 144.709 166.222C145.239 164.228 145.658 162.206 145.964 160.166C146.108 159.188 144.617 158.767 144.467 159.752C143.384 166.895 140.74 173.458 137.699 179.963C134.957 185.805 132.21 191.694 131.225 198.13C130.073 205.458 131.161 213.16 132.549 220.39C133.984 227.873 136.512 235.356 141.189 241.499C149.253 252.056 162.668 257.427 174.885 261.583C187.817 265.981 201.082 269.411 214.336 272.71C220.407 274.224 226.489 275.68 232.572 277.148C235.077 277.724 237.589 278.351 240.094 278.973C240.537 279.166 241.004 279.3 241.483 279.37C241.511 279.37 241.569 279.428 241.586 279.422C241.604 279.416 241.782 278.512 241.678 278.437C241.678 278.437 241.604 278.495 241.506 278.437C241.001 278.374 240.49 278.374 239.985 278.437C239.916 278.437 239.737 278.351 239.685 278.38C239.634 278.409 239.564 279.324 239.714 279.381C240.109 279.306 240.494 279.193 240.866 279.042L239.91 278.311C239.207 294.469 241.2 310.627 243.717 326.555C246.356 343.191 249.702 359.706 252.035 376.388C253.187 384.447 254.045 392.506 254.396 400.629C254.564 404.462 254.61 408.296 254.483 412.142C254.356 415.987 254.057 419.878 256.211 423.223C259.897 428.979 268.013 431.011 274.188 432.646C278.008 433.724 281.957 434.278 285.927 434.292C288.985 434.258 292.159 434.039 294.227 431.512C295.036 430.517 295.571 429.328 295.779 428.063C295.987 426.798 295.861 425.501 295.413 424.299C294.837 422.756 293.657 421.663 292.608 420.419C291.209 418.767 289.97 416.965 289.521 414.807C288.611 410.432 290.166 405.683 290.932 401.389C291.739 396.849 292.455 392.293 293.081 387.723C295.542 369.474 296.661 351.069 296.427 332.657C296.185 314.24 294.786 295.856 292.24 277.614C291.163 269.786 290.437 261.617 287.303 254.289C284.662 248.368 280.889 243.018 276.198 238.54C266.625 229.117 254.575 222.566 243.211 215.595C227.941 206.235 212.262 197.462 195.771 190.428C194.857 190.044 193.941 189.66 193.024 189.276C192.091 188.891 190.772 188.609 189.954 188.027C188.358 186.905 188.226 183.618 188.462 181.914C188.565 181.166 187.419 180.826 187.31 181.597L187.275 181.62Z" fill="black"/>
<path d="M164.586 76.4508C166.088 73.6663 167.348 70.7582 168.353 67.7586C169.563 64.4047 170.501 60.9589 171.158 57.4546C171.48 55.7944 171.654 54.1088 171.677 52.4178C171.677 51.2665 169.845 51.2665 169.868 52.4178C169.932 56.4473 168.981 60.5228 167.91 64.3854C166.879 68.3531 165.431 72.2007 163.59 75.8636C163.244 76.5256 164.223 77.1013 164.586 76.4393V76.4508Z" fill="black"/>
<path d="M158.584 77.3431L161.136 70.5563C161.311 69.9347 161.642 69.368 162.098 68.91C162.749 68.3631 163.676 68.3344 164.529 68.3344C174.596 68.4095 184.425 71.4096 192.816 76.969C194.262 77.936 195.829 79.4097 195.402 81.0906L202.032 83.1744C204.595 83.9803 209.232 87.6989 211.208 89.5064C213.431 91.5499 212.515 91.6651 213.512 94.5145C214.664 97.8762 215.85 101.267 216.282 104.795C216.893 109.78 216.012 114.823 214.958 119.728C212.825 129.626 209.983 139.358 206.456 148.849C204.901 153.028 203.19 157.196 200.667 160.869C198.732 163.683 195.788 175.461 193.346 177.85C189.89 181.252 189.723 180.953 184.913 181.649C169.413 183.906 166.66 181.799 164.091 181.649C155.929 181.171 157.985 174.661 150.422 171.541C144.985 169.302 139.72 166.36 135.769 161.98C132.699 158.601 130.527 154.496 128.73 150.311C127.502 147.666 126.647 144.862 126.19 141.982C125.683 138.027 126.403 134.021 127.267 130.124C129.053 122.116 131.472 114.23 132.509 106.091C132.935 102.74 133.131 99.3326 134.156 96.1205C135.792 90.9801 139.507 86.634 144.023 83.6752C148.539 80.7164 153.815 79.0701 159.166 78.2987" fill="black"/>
<path d="M159.16 77.4986L160.963 72.9568C161.257 72.22 161.539 71.4832 161.839 70.7464C162.092 70.1304 162.357 69.503 163.037 69.2727C163.647 69.1222 164.279 69.0833 164.903 69.1576C165.652 69.1576 166.407 69.2152 167.155 69.267C168.613 69.3591 170.07 69.5145 171.516 69.7448C177.246 70.6484 182.784 72.5025 187.903 75.2306C189.337 75.9905 190.743 76.8194 192.096 77.7116C193.058 78.3506 194.705 79.4673 194.4 80.8258C194.337 81.0851 194.375 81.3586 194.507 81.5908C194.638 81.8229 194.854 81.9961 195.109 82.075L199.751 83.5371C200.879 83.8329 201.977 84.2358 203.029 84.7402C205.021 85.86 206.898 87.173 208.633 88.6603C209.825 89.6447 211.559 90.819 211.87 92.2581C212.054 93.2055 212.292 94.1416 212.584 95.0614C213.091 96.5293 213.598 97.9972 214.042 99.4881C214.998 102.558 215.464 105.76 215.424 108.975C215.29 112.188 214.862 115.383 214.145 118.519C212.838 124.782 211.219 130.981 209.336 137.095C207.498 143.064 205.563 149.126 202.919 154.796C202.277 156.176 201.561 157.521 200.776 158.825C200.293 159.614 199.728 160.362 199.308 161.185C198.567 162.749 197.922 164.356 197.378 165.998C196.681 167.949 196.019 169.912 195.287 171.852C194.759 173.437 194.06 174.96 193.202 176.394C193.085 176.602 192.944 176.795 192.782 176.969C192.43 177.338 192.039 177.677 191.63 178.017C191.051 178.569 190.414 179.056 189.729 179.468C189.508 179.608 189.267 179.714 189.015 179.784C188.668 179.894 188.314 179.979 187.955 180.038C187.022 180.205 186.054 180.285 185.075 180.4C180.467 180.976 175.859 181.551 171.182 181.35C170.508 181.35 169.839 181.264 169.171 181.189L168.774 181.137C169.073 181.177 168.803 181.137 168.664 181.137L167.898 181.005L167.587 180.959L167.247 180.913L166.631 180.815L165.6 180.636C165.134 180.525 164.653 180.494 164.177 180.544H164.828C163.55 180.371 162.259 180.366 161.05 179.842C160 179.345 159.091 178.593 158.406 177.654C157.536 176.503 156.799 175.312 155.871 174.201C154.794 172.922 153.474 171.868 151.989 171.098C150.019 170.085 147.923 169.371 145.958 168.318C143.958 167.282 142.049 166.081 140.25 164.726C136.621 161.852 133.671 158.214 131.61 154.07C129.41 149.851 127.29 145.142 127.066 140.324C126.824 135.143 128.316 129.997 129.548 125.029C130.798 119.975 132.129 114.933 133.004 109.798C133.834 104.98 133.799 99.8565 135.59 95.2514C137.088 91.4119 140.003 88.0444 143.246 85.5461C146.932 82.7082 151.39 80.941 155.918 79.9566C157.07 79.6976 158.222 79.4846 159.408 79.3119C159.675 79.2366 159.902 79.059 160.039 78.8175C160.176 78.5761 160.212 78.2904 160.14 78.0225C160.06 77.7576 159.882 77.5333 159.642 77.3961C159.402 77.2589 159.118 77.2194 158.849 77.2857C148.637 78.7938 138.177 83.7328 133.857 93.6684C132.813 96.2462 132.144 98.96 131.87 101.727C131.501 104.646 131.207 107.553 130.677 110.448C129.594 116.349 127.982 122.128 126.645 127.965C125.309 133.802 124.168 139.725 125.868 145.632C126.674 148.284 127.701 150.864 128.938 153.345C130.084 155.793 131.463 158.126 133.056 160.31C136.278 164.515 140.414 167.932 145.152 170.303C146.304 170.925 147.537 171.495 148.764 172.03C149.842 172.453 150.886 172.959 151.886 173.544C153.271 174.488 154.447 175.707 155.342 177.125C156.134 178.459 157.103 179.681 158.222 180.757C159.748 181.978 161.61 182.707 163.561 182.847C163.818 182.891 164.078 182.912 164.339 182.91C164.69 182.91 164.103 182.91 163.999 182.795C164.139 182.885 164.299 182.938 164.465 182.95C164.748 183.025 165.041 183.088 165.324 183.158C166.127 183.389 166.945 183.57 167.772 183.699L168.111 183.745L168.469 183.791L169.298 183.877C169.926 183.935 170.559 183.969 171.193 183.992C172.874 184.051 174.556 184.014 176.233 183.883C178.744 183.693 181.25 183.445 183.721 183.106C184.942 182.939 186.163 182.72 187.379 182.53C188.097 182.429 188.806 182.269 189.498 182.052C191.042 181.523 192.229 180.441 193.369 179.307C194.383 178.279 195.201 177.076 195.783 175.755C197.367 172.376 198.455 168.79 199.757 165.301C200.178 164.009 200.73 162.763 201.404 161.583C202.864 159.325 204.157 156.964 205.275 154.519C207.589 149.108 209.587 143.566 211.26 137.924C213.011 132.256 214.522 126.518 215.793 120.712C217.077 114.823 218.097 108.808 216.985 102.804C216.348 99.9083 215.513 97.0598 214.485 94.2786C213.967 92.7531 213.967 91.1298 212.913 89.8404C211.697 88.3495 210.033 87.1406 208.501 85.9778C206.897 84.6501 205.142 83.5177 203.271 82.6046C202.175 82.1547 201.054 81.7702 199.912 81.4533L195.667 80.1178L196.376 81.3669C197.061 78.034 193.386 76.0538 190.99 74.6435C188.185 72.996 185.228 71.6216 182.16 70.5391C179.019 69.416 175.776 68.6005 172.478 68.1042C170.876 67.8547 169.265 67.682 167.645 67.5861C166.113 67.4015 164.563 67.4228 163.037 67.6494C161.228 68.0351 160.733 69.5893 160.157 71.1493C159.443 73.1564 158.73 75.1692 158.02 77.1878C157.761 77.9131 158.89 78.1952 159.172 77.4986H159.16Z" fill="black"/>
<path d="M207.712 22.9163C208.397 24.8692 208.67 26.943 208.512 29.0066C208.437 31.1595 208.253 33.3123 208.19 35.471C208.068 37.7093 208.172 39.9541 208.501 42.1715C208.851 44.1476 209.504 46.058 210.436 47.8358C210.729 48.2534 210.972 48.7034 211.162 49.177C211.26 49.6375 210.874 49.9772 210.54 50.2074C209.788 50.6097 209.157 51.206 208.714 51.9343C208.028 53.3562 208.27 55.2846 208.224 56.8273C208.126 60.0509 208.023 63.6141 206.456 66.5211C206.073 67.3057 205.53 68.0012 204.861 68.5625C204.192 69.1237 203.413 69.5383 202.574 69.7792C200.563 70.3088 198.38 69.9231 196.387 69.5087C195.293 69.2842 194.826 70.9535 195.927 71.1838C199.55 71.9379 203.691 72.3351 206.502 69.4569C208.996 66.8722 209.612 63.0557 209.854 59.6192C209.975 57.8922 209.981 56.1193 210.039 54.3693C210.039 53.4943 210.073 52.6712 210.816 52.0667C211.559 51.4623 212.452 51.0766 212.775 50.0347C213.132 48.8834 212.556 48.1236 212.049 47.1565C211.526 46.1879 211.09 45.1746 210.747 44.1286C210.102 41.9415 209.773 39.6737 209.768 37.3936C209.705 34.786 209.872 32.2129 209.866 29.5764C209.866 27.1587 209.658 24.7123 208.645 22.4903C208.409 21.978 207.493 22.3464 207.723 22.876L207.712 22.9163Z" fill="black"/>
<path d="M205.735 40.7842C205.725 40.7857 205.716 40.7896 205.708 40.7956C205.7 40.8015 205.693 40.8092 205.689 40.8182C205.684 40.8271 205.682 40.837 205.682 40.847C205.682 40.857 205.685 40.8668 205.689 40.8757C205.696 40.8878 205.706 40.8974 205.718 40.9026C205.731 40.9078 205.745 40.9084 205.758 40.9042C205.798 40.9042 205.804 40.7956 205.758 40.7842" fill="black"/>
<path d="M205.309 40.1854L205.488 40.1106L205.304 40.1854C205.248 40.2225 205.194 40.2628 205.142 40.3063L205.021 40.4675L204.941 40.6574L204.912 40.8762L204.941 41.1007C204.963 41.2069 205.015 41.3047 205.091 41.3828C205.125 41.446 205.177 41.498 205.24 41.5324C205.318 41.6079 205.416 41.6598 205.523 41.6821H205.747C205.98 41.6773 206.202 41.5848 206.369 41.423C206.369 41.423 206.496 41.2561 206.502 41.2504C206.518 41.217 206.531 41.1823 206.542 41.1467C206.559 41.1131 206.575 41.0785 206.588 41.0431L206.617 40.8186C206.616 40.7391 206.607 40.6599 206.588 40.5826L206.502 40.3811L206.369 40.2084C206.313 40.1556 206.251 40.1093 206.185 40.0703C205.984 39.9612 205.75 39.9304 205.528 39.9839C205.42 40.0052 205.32 40.0572 205.24 40.1336C205.148 40.1937 205.072 40.2771 205.021 40.3754L204.935 40.5768C204.895 40.7257 204.895 40.8827 204.935 41.0316L205.021 41.2331C205.096 41.359 205.201 41.4639 205.327 41.5382L205.154 41.4058L205.021 41.2331L204.935 41.0258L204.906 40.8014L204.935 40.5768L205.021 40.3754L205.154 40.2027L205.321 40.0703L205.517 39.9897L205.736 39.9609L205.96 39.9897L205.736 39.9609C205.624 39.9542 205.512 39.9781 205.413 40.03C205.344 40.0515 205.281 40.0889 205.229 40.1394C205.138 40.1989 205.062 40.2799 205.01 40.3754L205.142 40.2084L205.309 40.0818L205.5 40.0012L205.713 39.9724L205.92 40.0012L206.104 40.076L206.254 40.1912L206.369 40.3408C206.264 40.1798 206.108 40.0583 205.926 39.9955H205.724C205.592 39.9951 205.463 40.0309 205.35 40.0991L205.309 40.1854Z" fill="black"/>
<path d="M209.353 36.2999C208.753 35.3205 207.794 34.6141 206.68 34.3312C206.071 34.198 205.441 34.1823 204.826 34.2851C204.486 34.3107 204.156 34.4088 203.858 34.5726C203.56 34.7365 203.301 34.9623 203.098 35.2349C203.03 35.3505 202.994 35.4817 202.993 35.6154C202.992 35.7492 203.026 35.8809 203.092 35.9973C203.158 36.1138 203.253 36.211 203.368 36.2792C203.484 36.3474 203.615 36.3843 203.748 36.3862C203.946 36.3868 204.142 36.3477 204.324 36.2711C204.37 36.2711 204.434 36.2193 204.353 36.2711L204.543 36.202C204.756 36.133 204.964 36.0581 205.177 36.0063L205.344 35.9718C205.396 35.9718 205.528 35.943 205.402 35.9718C205.512 35.9565 205.624 35.9469 205.736 35.943C205.845 35.9372 205.955 35.9372 206.064 35.943H206.231C206.116 35.943 206.231 35.943 206.294 35.943C206.681 36.0044 207.054 36.1351 207.394 36.3287C207.753 36.528 208.066 36.7984 208.316 37.1231C208.433 37.2327 208.585 37.2972 208.745 37.3051C208.905 37.3129 209.062 37.2636 209.189 37.1659C209.316 37.0682 209.404 36.9285 209.437 36.772C209.47 36.6154 209.446 36.4521 209.37 36.3114L209.353 36.2999Z" fill="black"/>
<path d="M205.223 56.4129C205.17 56.368 205.12 56.3199 205.073 56.269L204.906 56.1309C204.814 56.0676 204.981 56.1942 204.906 56.1309L204.589 55.8603C204.385 55.6686 204.193 55.4649 204.013 55.2502C203.967 55.2041 203.933 55.1465 203.887 55.1005C204.031 55.2502 203.887 55.1005 203.852 55.0487C203.817 54.9969 203.696 54.8184 203.627 54.7033C203.48 54.4611 203.349 54.2092 203.236 53.9492C203.144 53.7922 202.996 53.6767 202.821 53.6269C202.668 53.5891 202.506 53.6012 202.36 53.6614C202.203 53.7268 202.076 53.8471 202.002 53.9997C201.928 54.1523 201.912 54.3268 201.957 54.4903C202.207 55.1258 202.57 55.7109 203.028 56.2172C203.254 56.4614 203.505 56.6814 203.777 56.8735C203.89 56.9624 204.007 57.0451 204.129 57.121C204.291 57.2151 204.463 57.2923 204.641 57.3512C204.762 57.3839 204.889 57.3767 205.005 57.3305C205.121 57.2844 205.219 57.2019 205.284 57.0954C205.349 56.9889 205.377 56.8643 205.365 56.7402C205.353 56.6161 205.301 56.4992 205.217 56.4072L205.223 56.4129Z" fill="black"/>
<path d="M195.385 69.687C194.899 70.5531 194.481 71.4558 194.135 72.3867C193.634 73.538 193.121 74.6893 192.632 75.8694C191.682 77.9307 190.851 80.0449 190.143 82.2014C189.867 83.157 191.244 83.4736 191.601 82.5986C192.447 80.5033 193.271 78.3964 194.124 76.3011C194.584 75.1498 195.022 73.9985 195.448 72.876C195.853 71.9441 196.142 70.9658 196.307 69.9633C196.358 69.4452 195.621 69.3301 195.385 69.71V69.687Z" fill="black"/>
<path d="M188.26 41.2101L188.393 41.3022L188.352 41.2735L188.416 41.3253C188.492 41.3884 188.564 41.4577 188.629 41.5325L188.727 41.6419C188.784 41.7167 188.727 41.6419 188.727 41.6419C188.741 41.664 188.756 41.6851 188.773 41.7052C188.83 41.7915 188.882 41.8721 188.934 41.9642L188.997 42.0909C189.011 42.1146 189.023 42.1397 189.032 42.1657C189.032 42.1657 188.98 42.0391 189.032 42.1139C189.084 42.1887 189.095 42.3038 189.124 42.4017C189.153 42.4996 189.165 42.5974 189.182 42.6953L189.216 42.8507C189.216 42.8507 189.216 42.891 189.216 42.914C189.165 42.6953 189.216 42.9658 189.216 43.0061C189.259 43.1135 189.333 43.2056 189.428 43.2706C189.524 43.3355 189.637 43.3702 189.752 43.3702C189.868 43.3702 189.98 43.3355 190.076 43.2706C190.171 43.2056 190.245 43.1135 190.288 43.0061C190.37 42.4378 190.243 41.859 189.931 41.3771C189.669 40.9233 189.296 40.5432 188.848 40.2718C188.785 40.2133 188.71 40.1696 188.628 40.144C188.546 40.1183 188.459 40.1113 188.374 40.1235C188.289 40.1357 188.207 40.1667 188.136 40.2144C188.064 40.262 188.004 40.3251 187.96 40.3989C187.916 40.4727 187.89 40.5554 187.882 40.6409C187.874 40.7265 187.885 40.8127 187.915 40.8932C187.945 40.9738 187.993 41.0466 188.054 41.1064C188.116 41.1663 188.19 41.2115 188.272 41.2389L188.26 41.2101Z" fill="black"/>
<path d="M185.65 235.057C185.074 221.702 181.872 208.532 179.245 195.482C174.361 171.213 175.104 145.102 163.584 122.611C151.142 98.3827 125.205 87.7564 98.83 88.9537C26.997 92.1888 42.814 191.55 53.8098 237.13C59.9442 262.544 73.7394 281.5 100.466 286.059C140.786 292.909 182.315 297.888 222.371 289.639C230.63 287.913 239.835 284.81 243.107 277.044C246.321 269.458 242.122 260.351 235.59 255.331C229.058 250.312 220.735 248.36 212.705 246.472C204.676 244.584 191.969 240.353 185.633 235.074" fill="#24B95C"/>
<path d="M186.157 235.057C185.581 219.573 181.359 204.681 178.871 189.472C176.567 175.571 175.668 161.462 172.84 147.646C170.202 134.769 165.784 121.892 157.369 111.594C150.129 102.723 140.331 96.2645 129.588 92.4365C118.788 88.6715 107.31 87.2431 95.9154 88.2458C87.8168 88.9251 79.7874 90.9801 72.6796 95.0154C66.4241 98.6259 61.0569 103.59 56.972 109.545C52.75 115.623 49.8124 122.548 47.756 129.64C45.5998 137.402 44.2487 145.365 43.724 153.403C43.1461 161.889 43.1327 170.404 43.6837 178.892C44.1791 187.279 45.118 195.632 46.3506 203.938C47.4796 211.525 48.8504 219.068 50.4632 226.567C52.2604 235.006 54.1324 243.479 57.4386 251.48C61.2978 260.823 66.9599 269.521 74.9144 275.888C78.926 279.084 83.3908 281.666 88.1624 283.549C93.9224 285.852 99.8956 286.842 105.961 287.844C121.369 290.371 136.852 292.547 152.421 293.767C167.881 294.97 183.444 295.223 198.904 293.871C206.601 293.208 214.254 292.116 221.829 290.601C227.405 289.45 233.199 287.941 237.882 284.591C242.565 281.241 245.422 276.193 245.036 270.43C244.644 264.559 241.361 259.01 236.897 255.274C231.771 250.991 225.285 248.763 218.909 247.1C213.016 245.563 207.124 244.268 201.387 242.207C196.111 240.313 190.581 238.062 186.215 234.47C185.397 233.797 184.216 234.965 185.063 235.621C189.389 239.185 194.722 241.476 199.935 243.416C205.459 245.471 211.115 246.869 216.824 248.268C223.286 249.874 229.956 251.878 235.256 256.068C239.789 259.649 243.268 265.238 243.389 271.121C243.671 284.424 227.768 287.815 217.59 289.657C202.614 292.362 187.355 293.266 172.149 292.984C156.841 292.606 141.568 291.33 126.409 289.162C118.777 288.126 111.168 286.934 103.57 285.662C97.8853 284.712 92.3212 283.503 87.0277 281.16C77.9768 277.093 70.3114 270.473 64.9727 262.112C59.518 253.702 56.3672 244.204 54.092 234.516C52.4984 227.716 51.0776 220.879 49.8296 214.006C48.4184 206.166 47.2607 198.274 46.437 190.353C45.5484 182.067 45.1023 173.739 45.1007 165.405C45.0641 157.29 45.696 149.187 46.99 141.176C48.2456 133.773 50.1925 126.417 53.326 119.572C56.1574 113.16 60.2335 107.372 65.3183 102.545C70.7027 97.6377 77.1637 94.0612 84.1823 92.1026C93.5596 89.4029 103.657 89.1438 113.293 90.3757C124.485 91.7745 135.458 95.6141 144.703 102.142C154.616 109.136 161.637 118.985 166.061 130.21C171.135 143.104 173.036 156.914 174.776 170.58C175.64 177.367 176.475 184.159 177.656 190.9C178.946 198.251 180.703 205.515 182.137 212.838C183.665 220.167 184.664 227.596 185.126 235.069C185.161 235.719 186.169 235.725 186.146 235.069L186.157 235.057Z" fill="#24B95C"/>
<path d="M492.347 434.609H488.839V194.354H492.347V434.609Z" fill="black" stroke="black" stroke-width="1.69" stroke-miterlimit="10"/>
<path d="M393.932 434.609H390.424V194.354H393.932V434.609Z" fill="black" stroke="black" stroke-width="1.69" stroke-miterlimit="10"/>
<path d="M272.183 263.442C271.267 266.8 269.272 269.763 266.504 271.875C265.956 272.296 266.504 273.234 267.051 272.808C270.03 270.526 272.17 267.325 273.139 263.701C273.172 263.575 273.154 263.441 273.088 263.328C273.023 263.215 272.915 263.133 272.789 263.099C272.663 263.065 272.529 263.082 272.415 263.146C272.302 263.21 272.218 263.317 272.183 263.442Z" fill="#24B95C"/>
<path d="M266.239 261.071C265.018 264.259 262.889 267.021 260.116 269.014C259.586 269.394 260.116 270.281 260.629 269.895C263.61 267.751 265.892 264.776 267.189 261.341C267.414 260.765 266.458 260.489 266.239 261.076V261.071Z" fill="#24B95C"/>
<path d="M196.71 201.187C197.287 203.083 197.379 205.094 196.977 207.035C196.574 208.977 195.69 210.786 194.406 212.296C193.87 212.907 194.757 213.805 195.298 213.189C198.178 209.936 199.302 205.015 197.7 200.91C197.458 200.294 196.496 200.525 196.687 201.187H196.71Z" fill="#24B95C"/>
<path d="M207.757 86.2943C219.611 92.1025 227.128 119.733 229.686 137.578C229.899 139.046 230.129 140.629 231.16 141.7C232.047 142.615 233.355 142.966 234.616 143.277L293.76 158.146C297.861 159.176 302.809 161.139 303.149 165.353C305.983 164.167 309.335 166.268 310.637 169.066C311.938 171.863 311.685 175.087 311.426 178.155C311.213 180.694 310.89 183.474 309.053 185.247C307.215 187.02 303.368 186.646 302.901 184.136C302.475 188.891 296.352 190.468 291.583 190.658C271.132 191.581 250.64 190.504 230.4 187.44C225.285 186.663 220.032 185.713 215.643 182.99C210.701 179.94 207.296 174.972 204.226 170.044C192.641 151.389 183.776 131.178 177.897 110.022" fill="black"/>
<path d="M207.504 86.7261C210.016 88.1526 212.18 90.1187 213.84 92.4825C215.966 95.4057 217.762 98.5543 219.197 101.871C222.601 109.418 224.928 117.465 226.731 125.536C227.572 129.312 228.28 133.115 228.856 136.945C229.167 139.04 229.363 141.372 231.206 142.736C232.179 143.367 233.264 143.805 234.403 144.025L238.579 145.062C249.961 147.94 261.347 150.818 272.736 153.696L289.728 157.979C292.067 158.482 294.375 159.12 296.64 159.89C298.368 160.546 300.234 161.479 301.363 163.004C301.879 163.688 302.198 164.501 302.285 165.353C302.331 165.819 302.774 166.343 303.31 166.136C305.165 165.405 307.1 166.136 308.494 167.494C310.101 169.072 310.654 171.316 310.752 173.51C310.848 175.841 310.697 178.175 310.303 180.475C310.003 182.236 309.358 184.504 307.538 185.259C306.179 185.834 304.007 185.615 303.638 183.923C303.425 182.967 302.135 183.29 302.043 184.136C301.622 188.166 296.461 189.369 293.167 189.726C290.419 190.019 287.626 190.013 284.872 190.077C281.75 190.15 278.628 190.178 275.507 190.163C263.064 190.082 250.637 189.265 238.291 187.716C235.284 187.337 232.272 186.922 229.277 186.444C226.545 186.051 223.849 185.443 221.213 184.625C218.66 183.82 216.269 182.571 214.151 180.935C212.138 179.302 210.341 177.417 208.806 175.329C205.488 170.937 202.729 166.078 200.033 161.289C197.219 156.3 194.596 151.217 192.165 146.04C187.275 135.618 183.177 124.842 179.908 113.804C179.524 112.461 179.14 111.118 178.756 109.775C178.687 109.57 178.542 109.399 178.351 109.297C178.16 109.196 177.937 109.171 177.728 109.228C177.519 109.286 177.341 109.421 177.229 109.606C177.117 109.791 177.08 110.012 177.126 110.224C180.315 121.646 184.375 132.808 189.268 143.611C191.699 148.984 194.331 154.258 197.165 159.435C199.88 164.533 202.858 169.486 206.087 174.275C209.117 178.662 212.774 182.68 217.693 184.936C223.016 187.371 228.983 188.039 234.726 188.822C247.406 190.555 260.181 191.516 272.978 191.7C279.314 191.786 285.679 191.781 291.986 191.389C295.747 191.153 300.626 190.238 302.78 186.784C303.287 185.954 303.592 185.018 303.673 184.05L302.077 184.263C302.521 186.283 304.629 187.221 306.547 187.049C308.984 186.819 310.579 185.063 311.363 182.847C311.769 181.581 312.023 180.27 312.117 178.944C312.255 177.528 312.376 176.1 312.394 174.678C312.428 171.892 311.979 168.974 310.13 166.786C308.402 164.754 305.522 163.471 302.907 164.484L303.932 165.261C303.529 161.105 299.566 159.009 295.983 157.852C293.495 157.046 290.909 156.511 288.374 155.872L279.734 153.702C268.214 150.805 256.681 147.926 245.134 145.067L236.494 142.914C235.208 142.68 233.95 142.316 232.739 141.826C232.216 141.559 231.763 141.172 231.416 140.699C231.069 140.225 230.837 139.677 230.74 139.098C230.273 137.193 230.112 135.184 229.778 133.249C229.444 131.315 229.064 129.347 228.655 127.401C226.927 119.198 224.675 111.018 221.368 103.299C219.936 99.8481 218.177 96.5423 216.115 93.4265C214.387 90.8937 212.365 88.4473 209.779 86.7491C209.226 86.3836 208.649 86.0566 208.051 85.7705C207.475 85.5 206.963 86.3462 207.544 86.6397L207.504 86.7261Z" fill="black"/>
<path d="M188.72 46.0513C187.892 45.7273 187.155 45.2053 186.574 44.531C185.994 43.8566 185.588 43.0505 185.391 42.183C185.22 41.3108 185.325 40.407 185.691 39.5972C186.058 38.7873 186.668 38.1117 187.436 37.6642C188.227 37.2641 189.14 37.1758 189.994 37.4168C190.847 37.6578 191.579 38.2104 192.044 38.9652C193.328 34.5558 198.276 32.5755 201.922 29.7549C204.604 27.6879 206.725 24.9826 208.091 21.8859C208.426 22.1936 208.677 22.5808 208.822 23.0114C208.967 23.4421 209.001 23.9024 208.921 24.3496C210.015 22.5018 210.706 20.1014 209.618 18.2536C208.437 16.2561 205.828 15.8129 203.61 15.1336C200.926 14.3162 198.455 12.8886 195.759 12.1C191.387 10.8221 186.716 11.3114 182.442 12.7447C180.932 13.3392 179.378 13.8165 177.794 14.1723C168.232 15.7899 161.867 21.3103 159.938 31.0386C158.682 37.3706 161.378 42.8795 164.402 48.3078L168.704 56.0099C168.932 56.6278 169.378 57.1409 169.959 57.4518C170.54 57.7627 171.214 57.8498 171.855 57.6965L177.575 57.5584C178.691 57.6671 179.816 57.4649 180.825 56.9742C181.833 56.4835 182.686 55.7233 183.289 54.778L187.897 49.5109C188.443 48.971 188.869 48.3216 189.147 47.6055C189.371 46.8687 189.331 46.4543 188.697 46.0513" fill="black"/>
<path d="M188.968 45.6425C186.803 44.6236 185.213 42.1023 186.359 39.7479C186.578 39.2586 186.923 38.8364 187.36 38.5248C187.796 38.2132 188.308 38.0234 188.842 37.975C189.361 37.9346 189.882 38.0392 190.346 38.277C190.809 38.5148 191.198 38.8765 191.468 39.322C191.539 39.4335 191.639 39.5226 191.759 39.5787C191.878 39.6348 192.011 39.6556 192.142 39.6387C192.273 39.6217 192.396 39.5677 192.497 39.4831C192.598 39.3984 192.673 39.2865 192.712 39.1608C193.83 35.5285 197.539 33.6289 200.494 31.6774C204.083 29.4023 206.945 26.1485 208.743 22.3002L207.591 22.4499C207.824 22.6683 208.002 22.9384 208.111 23.2384C208.22 23.5384 208.257 23.8599 208.218 24.1768C208.097 24.9597 209.123 25.5354 209.584 24.7525C210.586 23.0256 211.352 20.8842 210.736 18.8982C210.16 17.0849 208.645 16.02 206.945 15.3753C205.004 14.6327 202.988 14.224 201.064 13.3893C198.893 12.4683 196.756 11.4667 194.429 11.0062C189.625 10.0564 185 11.0695 180.467 12.6525C178.52 13.3318 176.492 13.5851 174.517 14.1434C172.903 14.5944 171.34 15.2077 169.851 15.974C163.768 19.1342 159.921 25.2533 159.016 31.9825C158.44 36.3977 159.702 40.669 161.591 44.6466C162.605 46.765 163.774 48.797 164.92 50.8463L166.792 54.2023C167.304 55.2468 167.882 56.2581 168.52 57.2302C169.886 59.0722 172.552 58.4966 174.563 58.4505C176.752 58.3987 179.407 58.7211 181.383 57.587C182.258 57.0352 183.037 56.3428 183.687 55.5378C184.516 54.6052 185.334 53.6669 186.152 52.7286C186.97 51.7903 187.805 50.8693 188.617 49.9253C189.324 49.2292 189.809 48.34 190.011 47.3694C190.063 46.9959 189.998 46.6154 189.825 46.2804C189.651 45.9454 189.378 45.6723 189.043 45.4986C188.404 45.0899 187.632 46.0742 188.225 46.5578C188.513 46.8053 188.554 46.8686 188.45 47.2313C188.312 47.6764 188.089 48.0907 187.793 48.4516C187.085 49.3669 186.261 50.2131 185.489 51.0881L183.456 53.3906C182.79 54.2319 182.056 55.0174 181.262 55.7392C179.614 57.1035 177.276 56.7984 175.277 56.8445L172.126 56.9193C171.061 56.9481 170.191 56.9884 169.58 55.9925C168.428 54.1044 167.403 52.1012 166.314 50.167C165.289 48.3307 164.241 46.5059 163.296 44.6236C161.568 41.118 160.191 37.3245 160.416 33.3468C160.756 27.2968 164.062 21.3389 169.217 18.1211C171.787 16.5729 174.627 15.5241 177.587 15.0299C179.683 14.6442 181.619 13.8095 183.652 13.2109C185.709 12.5863 187.839 12.2398 189.988 12.1805C192.398 12.1273 194.795 12.5377 197.05 13.3893C199.25 14.2125 201.341 15.3005 203.599 15.974C205.264 16.4748 207.32 16.7914 208.552 18.1384C210.085 19.8192 209.267 22.283 208.276 24.0157L209.641 24.5913C209.74 24.0165 209.698 23.4264 209.52 22.8712C209.341 22.3159 209.031 21.812 208.616 21.4022C208.536 21.3248 208.439 21.2663 208.333 21.2313C208.227 21.1963 208.114 21.1856 208.004 21.1999C207.893 21.2143 207.787 21.2534 207.694 21.3144C207.6 21.3753 207.522 21.4565 207.464 21.5519C206.547 23.6546 205.272 25.5827 203.697 27.2508C202.258 28.6877 200.658 29.953 198.928 31.0212C195.88 33.0187 192.517 35.114 191.393 38.8039L192.638 38.6427C191.008 35.8221 186.906 36.1387 185.34 38.8211C183.543 41.9008 185.518 45.3432 188.583 46.5405C189.095 46.7362 189.458 45.8843 188.963 45.6482L188.968 45.6425Z" fill="black"/>
<path d="M203.207 14.8342C209.232 16.5209 217.734 18.9558 221.679 23.3652C223.92 25.8693 225.222 29.0756 226.126 32.3107C226.794 34.7169 227.278 37.2612 228.787 39.2702C230.941 42.1484 234.651 43.3457 238.066 44.5258C241.482 45.7059 245.145 47.3177 246.706 50.5815C247.507 52.2797 247.622 54.2081 247.974 56.0559C248.325 57.9037 249.039 59.8321 250.612 60.8625C251.574 61.4957 252.743 61.7087 253.826 62.1001C256.034 62.8967 257.898 64.4329 259.101 66.4475C260.304 68.4621 260.772 70.8309 260.425 73.1512C260.078 75.4716 258.938 77.6003 257.198 79.1757C255.459 80.7511 253.227 81.6758 250.882 81.7928C247.426 81.9655 244.022 80.3537 240.543 80.5149C238.953 80.6643 237.379 80.9493 235.837 81.3668C233.376 81.8917 230.866 82.1541 228.349 82.1497C226.23 82.1497 224.006 81.9137 222.261 80.7164C221.051 79.8874 220.141 78.6441 218.84 77.9706C217.008 77.0207 214.808 77.3949 212.763 77.7173C209.399 78.2584 205.897 78.6095 202.619 77.6827C199.342 76.756 196.283 74.3152 195.558 70.988C196.842 69.9576 198.691 70.7808 200.31 71.0859C201.349 71.2775 202.417 71.2348 203.438 70.9609C204.458 70.6871 205.405 70.1889 206.208 69.5029C208.806 67.2579 209.393 63.522 209.664 60.1084C209.935 56.6949 210.13 53.0108 212.273 50.3225C212.573 49.9483 212.93 49.5281 212.849 49.0561C212.781 48.8276 212.663 48.6172 212.504 48.4402C209.744 44.8424 209.249 40.0128 209.393 35.4882C209.537 30.9637 210.223 26.3873 209.428 21.9261C209.341 21.4541 209.099 20.8727 208.621 20.9015" fill="black"/>
<path d="M203.057 15.3811C207.665 16.8259 212.302 18.2938 216.507 20.6885C218.524 21.7603 220.291 23.2474 221.691 25.0518C223.271 27.3397 224.419 29.8975 225.077 32.5985C225.815 35.258 226.397 38.0153 228.153 40.22C229.743 42.2232 232.047 43.4321 234.368 44.3819C238.4 46.0397 244.327 47.1104 245.888 51.8652C246.752 54.4786 246.557 57.3223 247.985 59.763C248.64 60.9145 249.65 61.8232 250.865 62.3534C252.057 62.8657 253.359 63.0729 254.505 63.6889C258.434 65.7957 260.507 70.8786 258.722 75.0463C257.804 77.1199 256.191 78.8079 254.16 79.8183C251.804 81.0099 249.269 80.8027 246.758 80.2788C245.302 79.9364 243.829 79.6675 242.346 79.4729C240.844 79.3381 239.331 79.4352 237.859 79.7608C236.344 80.0658 234.846 80.4458 233.314 80.6645C231.755 80.8774 230.183 80.987 228.608 80.9926C227.249 81.0414 225.89 80.8882 224.576 80.5379C223.376 80.1064 222.293 79.4007 221.414 78.4771C220.445 77.49 219.227 76.7822 217.889 76.4278C216.42 76.1745 214.917 76.192 213.454 76.4796C208.12 77.2797 202.135 78.0223 197.988 73.7856C197.177 72.9529 196.611 71.9134 196.352 70.7808L195.978 71.7076C196.802 71.0974 197.758 71.3219 198.691 71.5464C199.657 71.8335 200.656 71.996 201.663 72.0299C203.734 72.0085 205.715 71.1827 207.187 69.7273C210.067 66.8491 210.286 62.5433 210.603 58.7441C210.77 56.7006 210.983 54.565 211.829 52.6769C212.244 51.7443 212.947 51.042 213.419 50.1613C213.995 49.0906 213.419 48.3596 212.803 47.4788C210.366 43.8753 210.078 39.3105 210.263 35.091C210.389 32.2704 210.695 29.4555 210.701 26.6233C210.704 25.2063 210.61 23.7907 210.418 22.3866C210.251 21.2353 209.929 20.1244 208.615 19.9977C207.429 19.8768 207.435 21.7246 208.615 21.8513C208.322 21.8225 208.454 21.7074 208.489 22.0124C208.523 22.3175 208.587 22.496 208.621 22.7378C208.719 23.3134 208.777 23.9466 208.823 24.551C208.909 25.7484 208.915 26.9515 208.886 28.1488C208.829 30.4513 208.627 32.7539 208.546 35.091C208.408 39.0629 208.685 43.2075 210.493 46.8168C210.7 47.2297 210.929 47.6314 211.179 48.0199C211.357 48.2962 212.031 48.9409 212.037 49.2518C212.043 49.5626 211.461 50.0577 211.305 50.2937C211.024 50.6909 210.775 51.1106 210.562 51.5486C209.766 53.3097 209.279 55.1946 209.122 57.1208C208.708 60.684 208.909 64.725 206.715 67.7817C206.089 68.6424 205.258 69.3329 204.297 69.7904C203.337 70.2479 202.277 70.4577 201.214 70.4008C199.198 70.2857 197.026 68.9445 195.148 70.2857C194.995 70.3813 194.875 70.5229 194.807 70.6904C194.739 70.8578 194.725 71.0426 194.768 71.2183C195.377 73.6854 196.906 75.827 199.042 77.2049C201.508 78.8397 204.474 79.4039 207.394 79.3808C208.982 79.3493 210.566 79.2108 212.135 78.9664C213.611 78.663 215.115 78.5221 216.622 78.5462C218.096 78.6555 219.076 79.4672 220.112 80.4343C221.108 81.4236 222.304 82.1889 223.62 82.6793C226.5 83.6866 229.858 83.4276 232.836 83.0477C236.016 82.639 239.172 81.3841 242.392 81.6949C245.405 81.9885 248.342 83.1801 251.412 82.8462C253.886 82.5815 256.208 81.5232 258.03 79.8298C259.874 78.1318 261.087 75.8596 261.472 73.3841C261.857 70.9085 261.391 68.3757 260.15 66.1987C258.962 64.0408 257.11 62.3229 254.868 61.2999C253.624 60.7588 252.075 60.5919 251.009 59.7227C250.131 58.8898 249.542 57.7989 249.327 56.6085C248.958 55.1579 248.855 53.6612 248.515 52.2106C248.201 50.8045 247.58 49.4854 246.695 48.348C245.088 46.3103 242.726 45.0899 240.359 44.1516C237.991 43.2133 235.497 42.5974 233.222 41.4461C232.051 40.8867 231.006 40.095 230.15 39.1193C229.295 38.1436 228.647 37.0041 228.245 35.7703C227.289 32.9612 226.736 30.0772 225.492 27.3602C224.411 24.8619 222.729 22.669 220.596 20.9763C216.639 17.9484 211.593 16.4287 206.841 15.1796C205.689 14.8745 204.537 14.604 203.385 14.2989C203.252 14.2881 203.119 14.324 203.01 14.4003C202.9 14.4766 202.82 14.5887 202.784 14.7172C202.748 14.8458 202.758 14.9829 202.812 15.105C202.866 15.2272 202.961 15.3268 203.08 15.3868L203.057 15.3811Z" fill="black"/>
<path d="M183.594 132.397C187.971 140.623 192.107 148.982 196.122 157.392C197.274 159.769 198.27 162.233 199.52 164.553C199.895 165.249 201.122 164.766 200.828 163.977C199.993 161.807 198.904 159.712 197.907 157.611C196.911 155.509 195.914 153.426 194.872 151.353C192.781 147.168 190.604 143.03 188.38 138.908C187.105 136.54 185.811 134.186 184.498 131.845C184.17 131.269 183.277 131.776 183.594 132.374V132.397Z" fill="#24B95C"/>
<path d="M162.478 77.9879C166.679 78.245 170.88 78.483 175.081 78.7017L181.376 79.0298C182.31 79.0816 183.237 79.1162 184.164 79.2198C184.666 79.2733 185.164 79.3559 185.656 79.4673C186.157 79.5824 186.647 79.8012 187.154 79.8703C187.295 79.902 187.442 79.8833 187.571 79.8173C187.699 79.7513 187.801 79.6423 187.857 79.5092C187.913 79.3762 187.921 79.2276 187.879 79.0895C187.837 78.9513 187.747 78.8324 187.626 78.7535C186.786 78.3001 185.855 78.0386 184.902 77.9879C183.922 77.8555 182.937 77.798 181.952 77.7519L175.507 77.4583C171.164 77.2549 166.821 77.0631 162.478 76.8827C161.781 76.8827 161.792 77.9188 162.478 77.9649V77.9879Z" fill="#24B95C"/>
<path d="M191.986 79.8932L192.182 79.5363C192.222 79.4699 192.246 79.3949 192.251 79.3176C192.271 79.2421 192.271 79.1628 192.251 79.0873C192.236 79.0119 192.2 78.9422 192.148 78.8858C192.105 78.823 192.048 78.7715 191.981 78.7362L191.842 78.6786C191.741 78.6501 191.633 78.6501 191.531 78.6786L191.387 78.7362C191.301 78.7862 191.23 78.8576 191.18 78.9434L191.013 79.3176C190.97 79.3803 190.946 79.4543 190.944 79.5305C190.924 79.604 190.924 79.6816 190.944 79.755C190.961 79.8269 190.995 79.8939 191.042 79.9508C191.082 80.0116 191.138 80.0611 191.203 80.0947L191.341 80.1522C191.441 80.1797 191.547 80.1797 191.647 80.1522L191.779 80.0947C191.864 80.0462 191.936 79.9769 191.986 79.8932Z" fill="#24B95C"/>
<path d="M231.062 143.571C230.806 146.526 230.973 149.504 231.558 152.412C231.69 153.092 232.738 152.804 232.6 152.125C232.028 149.312 231.859 146.431 232.099 143.571C232.157 142.903 231.12 142.909 231.062 143.571Z" fill="#24B95C"/>
<path d="M236.482 145.2L236.454 151.722C236.491 151.837 236.565 151.937 236.663 152.008C236.761 152.079 236.879 152.118 237.001 152.118C237.122 152.118 237.24 152.079 237.339 152.008C237.437 151.937 237.51 151.837 237.548 151.722L237.519 145.2C237.519 145.062 237.465 144.931 237.367 144.833C237.27 144.736 237.138 144.682 237.001 144.682C236.863 144.682 236.731 144.736 236.634 144.833C236.537 144.931 236.482 145.062 236.482 145.2Z" fill="#24B95C"/>
<path d="M249.149 190.342C256.556 190.722 263.986 190.681 271.399 190.468C275.109 190.361 278.815 190.2 282.516 189.985C285.805 189.882 289.087 189.611 292.349 189.173C295.303 188.701 298.529 187.665 300.447 185.224C300.931 184.602 300.125 183.722 299.554 184.332C297.631 186.381 295.136 187.302 292.412 187.786C289.23 188.231 286.027 188.502 282.816 188.597C275.691 189.023 268.56 189.236 261.429 189.311C257.339 189.357 253.25 189.311 249.16 189.311C249.033 189.325 248.915 189.385 248.829 189.48C248.744 189.575 248.696 189.699 248.696 189.826C248.696 189.954 248.744 190.078 248.829 190.173C248.915 190.268 249.033 190.328 249.16 190.342H249.149Z" fill="#24B95C"/>
<path d="M277.77 406.512C270.218 405.709 262.582 406.342 255.265 408.377C255.265 410.006 255.231 411.629 255.167 413.235C255.064 415.809 254.954 418.468 255.847 420.88C257.869 426.337 264.101 428.738 269.642 430.51C277.09 432.888 282.977 434.062 289.48 433.268C294.589 432.64 296.824 426.446 293.385 422.618C291.715 420.759 290.027 418.871 289.157 416.638C288.236 414.272 288.305 411.704 288.662 409.154C285.162 407.801 281.5 406.913 277.77 406.512Z" fill="#24B95C"/>
<path d="M277.77 405.05C270.085 404.262 262.32 404.916 254.874 406.978C254.568 407.068 254.299 407.253 254.106 407.507C253.914 407.761 253.807 408.07 253.803 408.389C253.803 410.012 253.768 411.629 253.705 413.247C253.606 414.841 253.62 416.439 253.745 418.031C253.984 420.795 255.132 423.402 257.011 425.445C260.513 429.221 265.824 430.885 270.599 432.353C276.244 434.079 282.119 435.357 288.058 434.88C290.488 434.69 292.781 434.154 294.457 432.243C295.181 431.427 295.733 430.473 296.077 429.438C296.422 428.403 296.552 427.309 296.461 426.222C296.349 424.927 295.916 423.681 295.2 422.595C294.336 421.323 293.167 420.293 292.234 419.044C291.225 417.789 290.502 416.329 290.114 414.767C289.796 413.042 289.781 411.276 290.068 409.546C290.155 409.173 290.099 408.781 289.91 408.448C289.721 408.115 289.413 407.866 289.048 407.75C285.419 406.376 281.629 405.472 277.77 405.061C277.383 405.063 277.011 405.217 276.737 405.491C276.463 405.765 276.309 406.136 276.307 406.524C276.316 406.908 276.473 407.274 276.746 407.546C277.018 407.817 277.385 407.973 277.77 407.98C281.367 408.391 284.896 409.262 288.271 410.57L287.251 408.774C286.831 411.854 286.773 414.939 288.081 417.829C288.697 419.11 289.471 420.309 290.385 421.398C291.145 422.348 292.141 423.24 292.769 424.219C293.205 424.896 293.471 425.67 293.542 426.472C293.613 427.275 293.489 428.083 293.179 428.827C292.869 429.57 292.383 430.228 291.763 430.743C291.143 431.258 290.407 431.615 289.619 431.783C287.188 432.283 284.463 432.134 282.01 431.892C279.281 431.591 276.583 431.055 273.946 430.292C271.377 429.584 268.813 428.795 266.325 427.834C264.266 427.094 262.326 426.058 260.565 424.76C258.497 423.237 257.111 420.963 256.706 418.428C256.524 416.846 256.49 415.25 256.602 413.661C256.671 411.919 256.708 410.171 256.712 408.417L255.64 409.828C262.835 407.845 270.337 407.228 277.759 408.009C278.145 408.007 278.516 407.853 278.79 407.581C279.063 407.308 279.219 406.939 279.222 406.552C279.225 406.162 279.075 405.786 278.803 405.505C278.532 405.224 278.161 405.06 277.77 405.05Z" fill="#24B95C"/>
<path d="M286.848 414.462C287.597 414.404 288.351 414.375 289.106 414.358C289.86 414.341 290.632 414.415 291.375 414.358C291.539 414.358 291.695 414.293 291.811 414.178C291.927 414.062 291.992 413.905 291.992 413.742C291.992 413.579 291.927 413.422 291.811 413.306C291.695 413.191 291.539 413.126 291.375 413.126C290.607 413.072 289.836 413.089 289.071 413.178C288.282 413.235 287.493 413.322 286.71 413.431C286.587 413.465 286.481 413.542 286.411 413.648C286.341 413.753 286.312 413.881 286.329 414.007C286.345 414.135 286.407 414.253 286.503 414.339C286.6 414.425 286.724 414.473 286.854 414.473L286.848 414.462Z" fill="black"/>
<path d="M288.179 418.007C288.919 418.147 289.672 418.207 290.425 418.186C291.183 418.186 291.938 418.078 292.666 417.864C292.818 417.843 292.957 417.763 293.05 417.64C293.144 417.518 293.184 417.363 293.164 417.21C293.143 417.058 293.063 416.919 292.94 416.826C292.817 416.733 292.663 416.692 292.51 416.712C291.802 416.799 291.133 416.948 290.425 416.989C289.723 417.035 289.019 417.035 288.317 416.989C287.741 416.937 287.591 417.915 288.179 418.019V418.007Z" fill="black"/>
<path d="M178.076 179.98C178.566 194.832 180.835 209.637 184.02 224.132C184.913 228.207 185.748 232.352 187.01 236.335C187.045 236.462 187.104 236.58 187.184 236.683C187.265 236.786 187.365 236.873 187.479 236.937C187.593 237.002 187.718 237.044 187.848 237.06C187.978 237.076 188.11 237.067 188.237 237.032C188.363 236.997 188.481 236.938 188.585 236.857C188.688 236.777 188.774 236.677 188.839 236.563C188.904 236.449 188.946 236.324 188.962 236.194C188.978 236.064 188.968 235.932 188.934 235.806C188.116 232.173 187.09 228.593 186.255 224.966C185.437 221.428 184.685 217.878 183.997 214.317C182.603 207.081 181.509 199.799 180.57 192.494C180.034 188.333 179.574 184.153 179.124 179.98C179.055 179.324 178.053 179.295 178.076 179.98Z" fill="black"/>
<path d="M439.448 185.466H324.288L332.698 179.462H443.906V181.01C443.906 182.192 443.436 183.325 442.6 184.161C441.764 184.996 440.63 185.466 439.448 185.466Z" fill="black"/>
<path d="M439.448 184.735H328.959C327.479 184.735 325.924 184.597 324.449 184.735H324.288L324.657 186.099L329.789 182.432L332.623 180.412C332.73 180.341 332.832 180.262 332.928 180.176C333.187 179.917 332.847 180.331 332.692 180.176H332.761C333.224 180.227 333.692 180.227 334.155 180.176H438.537C440.231 180.176 441.993 180.308 443.687 180.176H443.906L443.174 179.445C443.267 180.41 443.187 181.385 442.938 182.323C442.662 183.025 442.183 183.629 441.561 184.057C440.938 184.485 440.203 184.717 439.448 184.723C439.254 184.723 439.067 184.8 438.93 184.937C438.793 185.074 438.716 185.26 438.716 185.454C438.716 185.648 438.793 185.834 438.93 185.971C439.067 186.108 439.254 186.185 439.448 186.185C440.395 186.178 441.324 185.915 442.135 185.425C442.945 184.935 443.609 184.235 444.056 183.399C444.701 182.144 444.632 180.82 444.632 179.45C444.629 179.257 444.551 179.073 444.414 178.937C444.277 178.8 444.093 178.722 443.9 178.719H333.135C332.648 178.702 332.172 178.866 331.799 179.18L325.463 183.693L323.879 184.844C323.746 184.928 323.644 185.053 323.587 185.2C323.53 185.346 323.521 185.507 323.562 185.659C323.604 185.811 323.692 185.946 323.816 186.043C323.939 186.141 324.09 186.197 324.248 186.203H434.747C436.251 186.203 437.754 186.243 439.257 186.203H439.448C439.642 186.203 439.829 186.125 439.967 185.988C440.105 185.85 440.182 185.663 440.182 185.469C440.182 185.274 440.105 185.087 439.967 184.95C439.829 184.812 439.642 184.735 439.448 184.735Z" fill="black"/>
<path d="M369.176 181.327H363.197C362.894 181.327 362.649 181.572 362.649 181.874V182.634C362.649 182.936 362.894 183.18 363.197 183.18H369.176C369.478 183.18 369.723 182.936 369.723 182.634V181.874C369.723 181.572 369.478 181.327 369.176 181.327Z" fill="#24B95C"/>
<path d="M379.1 181.327H373.121C372.819 181.327 372.574 181.572 372.574 181.874V182.634C372.574 182.936 372.819 183.18 373.121 183.18H379.1C379.402 183.18 379.647 182.936 379.647 182.634V181.874C379.647 181.572 379.402 181.327 379.1 181.327Z" fill="#24B95C"/>
<path d="M389.03 181.327H383.051C382.749 181.327 382.504 181.572 382.504 181.874V182.634C382.504 182.936 382.749 183.18 383.051 183.18H389.03C389.332 183.18 389.577 182.936 389.577 182.634V181.874C389.577 181.572 389.332 181.327 389.03 181.327Z" fill="#24B95C"/>
<path d="M473.046 395.08C468.68 387.211 464.319 379.261 461.56 370.695C458.801 362.13 457.707 352.816 459.988 344.112C460.719 341.315 462.787 338.022 465.604 338.69C466.611 339.013 467.499 339.628 468.155 340.457C470.492 343.035 472.085 346.198 472.763 349.61L470.552 339.743C470.068 337.59 469.63 335.138 470.863 333.325C472.095 331.512 475.69 331.598 475.937 333.774C471.727 322.958 469.601 311.22 470.707 299.673C470.903 297.664 471.318 295.453 472.936 294.245C474.555 293.036 477.579 293.98 477.412 295.972C477.757 291.85 475.868 287.792 476.075 283.578C476.53 274.494 477.158 264.852 480.067 256.183C482.527 248.844 489.249 239.139 497.877 238.914C508.62 238.661 514.656 253.305 516.695 261.75C521.591 282.041 518.636 303.478 512.951 323.568C514.253 321.674 514.973 319.412 516.47 317.673C517.968 315.935 520.733 314.893 522.547 316.297C523.866 317.328 524.125 319.176 524.148 320.868C524.281 330.994 519.408 340.44 514.662 349.385C515.445 347.417 516.292 345.356 517.933 344.026C519.575 342.696 522.271 342.397 523.693 343.968C524.667 345.051 524.771 346.651 524.684 348.102C524.48 351.525 523.536 354.863 521.919 357.887C522.616 356.201 525.525 357.082 525.951 358.86C526.378 360.639 525.272 362.383 524.223 363.886C525.792 359.525 528.308 355.566 531.59 352.292C532.068 351.718 532.719 351.314 533.445 351.141C535.116 350.911 536.181 352.868 536.538 354.531C538.802 365.014 533.658 375.652 527.61 384.505C523.884 389.945 519.754 395.103 515.629 400.249C514.178 402.062 512.392 404.042 510.065 404.031" fill="#24B95C"/>
<path d="M473.472 394.815C468.599 385.921 463.709 376.895 461.157 367.017C459.834 362.081 459.273 356.972 459.492 351.866C459.617 349.415 459.984 346.981 460.587 344.602C461.042 342.84 461.86 340.797 463.467 339.784C465.771 338.321 467.833 341.067 469.002 342.76C470.466 344.885 471.481 347.286 471.986 349.817L473.478 349.408L471.986 342.719C471.542 340.745 470.909 338.69 470.834 336.681C470.77 335.207 471.099 333.423 472.694 332.939C473.662 332.646 474.998 332.818 475.16 333.981L476.674 333.561C474.339 327.61 472.708 321.407 471.813 315.077C471.39 311.939 471.182 308.775 471.191 305.608C471.191 304.036 471.266 302.459 471.387 300.888C471.434 299.521 471.659 298.167 472.055 296.858C472.452 295.707 473.264 294.555 474.589 294.509C475.482 294.509 476.6 294.941 476.559 295.972C476.519 297.002 478.137 297.019 478.212 295.972C478.425 293.053 477.636 290.215 477.17 287.377C476.68 284.43 476.997 281.454 477.17 278.495C477.567 272.474 478.184 266.441 479.664 260.581C480.732 255.978 482.688 251.627 485.424 247.773C487.97 244.291 491.489 241.032 495.826 240.094C504.161 238.292 509.76 246.53 512.703 253.069C516.816 262.21 518.077 272.641 518.158 282.553C518.262 294.861 516.223 307.093 513.129 318.968C512.749 320.425 512.352 321.847 511.943 323.314C511.62 324.466 513.17 325.041 513.792 324.092C515.324 321.789 516.096 318.56 518.676 317.184C519.684 316.643 521.032 316.395 521.977 317.184C522.921 317.973 523.065 319.487 523.129 320.638C523.313 327.016 521.297 333.302 518.717 339.058C517.219 342.409 515.514 345.661 513.792 348.902L515.618 349.673C516.332 347.889 517.133 345.782 518.786 344.654C520.041 343.796 522.138 343.502 523.129 344.895C523.595 345.719 523.796 346.665 523.705 347.607C523.673 348.767 523.542 349.922 523.313 351.06C522.87 353.268 522.111 355.401 521.061 357.392L522.789 358.394C523.186 357.559 524.425 358.135 524.822 358.728C525.773 360.138 524.143 362.28 523.377 363.391L525.185 364.15C526.011 361.88 527.102 359.714 528.434 357.698C529.135 356.645 529.905 355.639 530.738 354.687C531.44 353.87 532.241 352.764 533.203 352.246C535.138 351.199 535.76 355.205 535.922 356.276C536.266 358.76 536.239 361.282 535.841 363.759C534.228 374.057 527.829 382.985 521.631 391.062C519.771 393.491 517.864 395.874 515.946 398.257C514.495 400.065 512.726 402.891 510.123 402.96C508.804 402.96 508.798 405.044 510.123 405.015C512.726 404.946 514.627 403.127 516.177 401.222C518.106 398.85 519.995 396.438 521.867 394.02C525.519 389.3 529.125 384.488 532.08 379.296C534.868 374.397 537.114 369.084 537.84 363.465C538.228 360.675 538.177 357.842 537.69 355.067C537.339 353.075 536.383 350.295 533.981 350.105C532.535 349.99 531.469 350.98 530.525 351.947C529.469 353.041 528.489 354.207 527.593 355.435C525.77 357.945 524.313 360.701 523.267 363.621C522.864 364.738 524.477 365.25 525.076 364.387C526.458 362.395 528.163 359.206 526.038 357.116C524.707 355.792 522.006 355.389 521.073 357.387C520.497 358.538 522.178 359.528 522.801 358.388C524.174 355.809 525.086 353.009 525.496 350.116C525.819 347.756 526.118 344.705 524.114 342.967C522.426 341.499 519.834 341.677 518.008 342.788C515.739 344.164 514.673 346.766 513.734 349.12C513.314 350.174 515.036 350.882 515.56 349.892C519.016 343.433 522.472 336.836 524.154 329.675C524.949 326.331 525.56 322.583 525.058 319.147C524.995 318.428 524.789 317.729 524.45 317.091C524.112 316.453 523.649 315.89 523.089 315.434C522.487 315.024 521.798 314.763 521.076 314.671C520.354 314.579 519.62 314.659 518.936 314.904C515.117 316.119 514.114 320.085 512.116 323.061L513.965 323.838C517.421 311.554 519.863 298.884 520.151 286.094C520.314 279.788 519.873 273.48 518.832 267.259C518.116 262.727 516.904 258.287 515.22 254.019C512.34 246.996 507.208 238.373 498.683 238.016C494.041 237.82 489.83 240.319 486.685 243.571C483.481 246.923 481.024 250.916 479.474 255.285C477.423 260.967 476.525 267.063 475.96 273.05C475.666 276.158 475.482 279.272 475.321 282.386C475.225 283.853 475.267 285.326 475.448 286.784C475.661 288.367 476.024 289.927 476.3 291.499C476.59 292.971 476.696 294.473 476.617 295.972H478.27C478.362 293.548 475.488 292.38 473.46 293.093C470.626 294.049 470.114 297.583 469.883 300.133C469.283 307.466 469.835 314.846 471.519 322.008C472.456 326.084 473.692 330.086 475.217 333.981C475.286 334.166 475.422 334.318 475.598 334.407C475.774 334.497 475.977 334.517 476.167 334.464C476.357 334.412 476.521 334.29 476.625 334.122C476.73 333.955 476.768 333.755 476.732 333.561C476.484 331.966 474.883 331.166 473.385 331.258C472.537 331.287 471.72 331.58 471.046 332.096C470.373 332.612 469.878 333.326 469.63 334.137C468.858 336.439 469.63 338.949 470.12 341.2L472.049 349.794C472.268 350.767 473.737 350.37 473.541 349.385C473.05 346.948 472.107 344.625 470.759 342.535C469.607 340.751 467.965 338.396 465.742 337.93C463.778 337.516 462.107 338.701 461.007 340.233C459.665 342.086 459.141 344.354 458.744 346.565C456.768 357.502 459.556 368.577 463.928 378.576C466.462 384.332 469.532 389.841 472.608 395.327C472.936 395.903 473.84 395.391 473.512 394.798L473.472 394.815Z" fill="#24B95C"/>
<path d="M457.839 386.56H531.268V418.428C531.268 420.553 530.849 422.657 530.035 424.62C529.222 426.583 528.029 428.367 526.526 429.87C525.022 431.372 523.237 432.564 521.273 433.377C519.308 434.19 517.203 434.609 515.076 434.609H474.048C469.754 434.609 465.635 432.904 462.599 429.87C459.563 426.835 457.857 422.719 457.857 418.428V386.56H457.839Z" fill="white"/>
<path d="M457.839 386.56H531.268V418.428C531.268 420.553 530.849 422.657 530.035 424.62C529.222 426.583 528.029 428.367 526.526 429.87C525.022 431.372 523.237 432.564 521.273 433.377C519.308 434.19 517.203 434.609 515.076 434.609H474.048C469.754 434.609 465.635 432.904 462.599 429.87C459.563 426.835 457.857 422.719 457.857 418.428V386.56H457.839Z" stroke="black" stroke-width="1.69" stroke-miterlimit="10"/>
<path d="M498.568 265.192C495.112 271.162 494.916 278.311 495.78 284.983C496.777 292.667 499.04 300.174 498.954 307.974C498.867 315.774 497.007 323.614 497.404 331.506C497.79 339.243 499.864 346.864 499.132 354.647C498.389 362.539 495.256 371.052 498.499 378.766C498.844 379.595 500.227 379.267 499.875 378.386C497.295 371.478 499.409 364.22 500.353 357.214C500.846 353.493 500.898 349.728 500.509 345.995C500.123 342.161 499.449 338.356 499.052 334.522C498.686 330.665 498.686 326.781 499.052 322.923C499.386 319.049 499.916 315.186 500.152 311.301C500.384 307.485 500.214 303.655 499.645 299.874C499.069 296.075 498.24 292.328 497.566 288.552C496.218 280.999 495.59 272.67 499.536 265.745C499.568 265.624 499.561 265.497 499.515 265.381C499.469 265.265 499.386 265.167 499.28 265.102C499.173 265.037 499.048 265.009 498.924 265.021C498.8 265.033 498.683 265.085 498.591 265.169L498.568 265.192Z" fill="white"/>
<path d="M479.134 348.148C481.283 348.546 483.386 349.159 485.412 349.978C487.389 350.937 489.17 352.255 490.665 353.864C492.134 355.252 493.499 356.747 494.749 358.337C495.941 359.93 496.763 361.769 497.157 363.719C497.306 364.433 498.51 364.294 498.441 363.546C498.055 359.292 494.576 355.838 491.667 353.041C490.04 351.363 488.119 349.997 486 349.011C483.87 348.179 481.66 347.569 479.404 347.192C478.765 347.066 478.489 348.033 479.134 348.177V348.148Z" fill="white"/>
<path d="M508.896 332.036C504.631 333.779 501.022 336.817 498.58 340.722C498.148 341.413 499.242 342.052 499.668 341.361C501.967 337.669 505.322 334.751 509.299 332.985C509.829 332.749 509.443 331.834 508.896 332.036Z" fill="white"/>
<path d="M493.021 305.493C494.306 306.067 495.521 306.786 496.644 307.634C497.737 308.498 498.747 309.461 499.662 310.512C499.772 310.585 499.905 310.618 500.037 310.605C500.169 310.592 500.292 310.534 500.386 310.441C500.48 310.348 500.539 310.225 500.553 310.093C500.567 309.961 500.535 309.829 500.463 309.718C499.54 308.591 498.47 307.592 497.283 306.748C496.118 305.892 494.858 305.173 493.528 304.606C493.411 304.545 493.276 304.531 493.149 304.565C493.022 304.599 492.913 304.679 492.842 304.79C492.775 304.905 492.756 305.041 492.79 305.17C492.823 305.298 492.906 305.408 493.021 305.475V305.493Z" fill="white"/>
</svg>
