<svg width="45" height="25" viewBox="0 0 45 25" fill="none" xmlns="http://www.w3.org/2000/svg">
<path d="M42.6858 1.16693H35.5564C35.2654 1.16693 34.9799 1.24582 34.7301 1.39521C34.4804 1.54461 34.2759 1.75891 34.1383 2.01531C34.1383 2.01531 31.2948 7.25199 30.3815 9.01581C27.9243 13.7607 26.3332 12.2711 26.3332 10.069V2.47597C26.3332 1.84147 26.0811 1.23296 25.6325 0.784306C25.1838 0.33565 24.5753 0.0835981 23.9408 0.0835981H18.5805C17.8505 0.0293224 17.1187 0.162567 16.4547 0.470678C15.7907 0.778789 15.2165 1.25153 14.7866 1.84401C14.7866 1.84401 17.5085 1.40392 17.5085 5.07144C17.5085 5.98088 17.5554 8.5971 17.5981 10.7914C17.6061 11.1148 17.5147 11.4328 17.3363 11.7026C17.1578 11.9724 16.9009 12.181 16.6002 12.3001C16.2995 12.4192 15.9694 12.4432 15.6546 12.3688C15.3399 12.2944 15.0555 12.1253 14.8399 11.8841C12.6458 8.83255 10.8284 5.52712 9.42712 2.03966C9.30678 1.77878 9.11413 1.55789 8.87203 1.4032C8.62992 1.24851 8.34853 1.16651 8.06123 1.16693C6.5151 1.16693 3.42114 1.16693 1.58374 1.16693C1.40557 1.16572 1.22976 1.20778 1.07143 1.2895C0.913101 1.37122 0.776976 1.49016 0.674751 1.6361C0.572527 1.78203 0.50726 1.95061 0.484557 2.12733C0.461855 2.30406 0.482395 2.48365 0.544414 2.65069C2.51129 8.04582 10.984 25.0003 20.6547 25.0003H24.7251C25.1516 25.0003 25.5606 24.8308 25.8622 24.5293C26.1637 24.2277 26.3332 23.8187 26.3332 23.3922V20.9343C26.3332 20.626 26.4234 20.3244 26.5927 20.0667C26.762 19.809 27.003 19.6065 27.286 19.4841C27.5689 19.3617 27.8816 19.3247 28.1853 19.3778C28.489 19.4309 28.7706 19.5716 28.9953 19.7828L33.8673 24.3603C34.3048 24.7714 34.8826 25.0002 35.483 25.0003H41.8808C44.9664 25.0003 44.9664 22.8591 43.2841 21.2022C42.1001 20.0362 37.8277 15.5329 37.8277 15.5329C37.4618 15.1538 37.2436 14.6564 37.2125 14.1306C37.1813 13.6047 37.3393 13.085 37.6579 12.6654C39.0389 10.8481 41.2976 7.87331 42.2556 6.59892C43.5649 4.85705 45.9347 1.16693 42.6858 1.16693Z" fill="white"/>
</svg>
